<svg width="32" height="32" viewBox="0 0 32 32" xmlns="http://www.w3.org/2000/svg"><title>favicon</title><path d="M27.467 4.394L32 9.584 16 31 0 9.583l4.533-5.19L10.267 2h11.466l5.734 2.394zM11.2 22.832l-4.267-7.69-3.36-2.5 7.627 10.19zm12.507-7.53H8.24l7.733 13.915 7.734-13.914zm-2.96 7.53l4.266-7.69 3.36-2.5-7.626 10.19zM7.173 14l-5.84-4.364 3.547-4.07 5.04 2.42L7.173 14zm3.734-5.615L8.24 14.24h15.467L21.04 8.384H10.907zM24.773 14l5.84-4.364-3.546-4.07-5.04 2.42L24.773 14zM21.04 7.32H10.907L6 4.928l4.453-1.863h11.04l4.454 1.863L21.04 7.32z" fill="#000" fill-rule="evenodd"/></svg>