<?xml version="1.0" encoding="UTF-8" standalone="no"?>
<svg width="32px" height="32px" viewBox="0 0 32 32" version="1.1" xmlns="http://www.w3.org/2000/svg" xmlns:xlink="http://www.w3.org/1999/xlink" xmlns:sketch="http://www.bohemiancoding.com/sketch/ns">
    <!-- Generator: Sketch Internal 3.4.1 (15661) - http://www.bohemiancoding.com/sketch -->
    <title>favicon</title>
    <desc>Created with Sketch Internal.</desc>
    <defs></defs>
    <g id="Page-1" stroke="none" stroke-width="1" fill="none" fill-rule="evenodd" sketch:type="MSPage">
        <g id="favicon" sketch:type="MSArtboardGroup" fill="#000000">
            <path d="M27.4666667,4.39449541 L32,9.58256881 L16,31 L0,9.58256881 L4.53333333,4.39449541 L10.2666667,2 L21.7333333,2 L27.4666667,4.39449541 Z M11.2,22.8321109 L6.93333333,15.1431197 L3.57333374,12.6422018 L11.2,22.8321109 Z M23.7066671,15.3027523 L8.2400004,15.3027523 L15.9733337,29.217432 L23.7066671,15.3027523 Z M20.7466675,22.8321109 L25.0133341,15.1431197 L28.3733337,12.6422018 L20.7466675,22.8321109 Z M7.17333374,13.9990822 L1.33333333,9.635779 L4.88000081,5.56513802 L9.92000122,7.98623853 L7.17333374,13.9990822 Z M10.9066671,8.3853211 L8.24000041,14.2385322 L23.7066671,14.2385321 L21.0400004,8.3853211 L10.9066671,8.3853211 Z M24.7733337,13.9990822 L30.6133321,9.635779 L27.0666687,5.56513802 L22.0266663,7.98623853 L24.7733337,13.9990822 Z M21.0400004,7.32110092 L10.9066671,7.32110092 L6,4.9266055 L10.4533346,3.06422018 L21.4933329,3.06422018 L25.9466654,4.9266055 L21.0400004,7.32110092 Z" id="Diamond-Black" sketch:type="MSShapeGroup"></path>
        </g>
    </g>
</svg>